<svg viewBox="0 0 348.000000 348.000000">
    <g transform="translate(0.000000,348.000000) scale(0.100000,-0.100000)"
    fill="#000000" stroke="none">

        <path d="M660 2670 l0 -150 150 0 150 0 0 -160 0 -160 150 0 150 0 0 -150 0
        -150 160 0 160 0 0 -150 0 -150 -160 0 -160 0 0 -160 0 -160 -150 0 -150 0 0
        -150 0 -150 -150 0 -150 0 0 -160 0 -160 150 0 150 0 0 160 0 160 150 0 150 0
        0 150 0 150 160 0 160 0 0 160 0 160 150 0 150 0 0 -160 0 -160 160 0 160 0 0
        -150 0 -150 150 0 150 0 0 -160 0 -160 150 0 150 0 0 160 0 160 -150 0 -150 0
        0 150 0 150 -150 0 -150 0 0 160 0 160 -160 0 -160 0 0 150 0 150 160 0 160 0
        0 150 0 150 150 0 150 0 0 160 0 160 150 0 150 0 0 150 0 150 -150 0 -150 0 0
        -150 0 -150 -150 0 -150 0 0 -160 0 -160 -160 0 -160 0 0 -150 0 -150 -150 0
        -150 0 0 150 0 150 -160 0 -160 0 0 160 0 160 -150 0 -150 0 0 150 0 150 -150
        0 -150 0 0 -150z"/>
        <path d="M3120 1590 l0 -1230 -1540 0 -1540 0 0 -150 0 -150 1690 0 1690 0 0
        1380 0 1380 -150 0 -150 0 0 -1230z"/>
    </g>
    <g transform="translate(0.000000,348.000000) scale(0.100000,-0.100000)" 
    fill="#ffffff" class="first">
        <path d="M40 2050 l0 -1390 150 0 150 0 0 1240 0 1240 1540 0 1540 0 0 150 0
        150 -1690 0 -1690 0 0 -1390z"/>
    </g>
</svg>
