<?xml version="1.0" standalone="no"?>
<!DOCTYPE svg PUBLIC "-//W3C//DTD SVG 20010904//EN"
 "http://www.w3.org/TR/2001/REC-SVG-20010904/DTD/svg10.dtd">
<svg version="1.0" xmlns="http://www.w3.org/2000/svg"
 width="350.000000pt" height="350.000000pt" viewBox="0 0 350.000000 350.000000"
 preserveAspectRatio="xMidYMid meet">

<g transform="translate(0.000000,350.000000) scale(0.100000,-0.100000)"
fill="#000000" stroke="none">
<path d="M60 2060 l0 -1380 150 0 150 0 0 1230 0 1230 1540 0 1540 0 0 150 0
150 -1690 0 -1690 0 0 -1380z"/>
<path d="M1300 2670 l0 -150 -160 0 -160 0 0 -150 0 -150 -150 0 -150 0 0
-470 0 -470 150 0 150 0 0 -150 0 -150 160 0 160 0 0 -150 0 -150 460 0 460 0
0 150 0 150 150 0 150 0 0 150 0 150 160 0 160 0 0 470 0 470 -160 0 -160 0 0
150 0 150 -150 0 -150 0 0 150 0 150 -460 0 -460 0 0 -150z m920 -300 l0 -150
150 0 150 0 0 -470 0 -470 -150 0 -150 0 0 -150 0 -150 -460 0 -460 0 0 150 0
150 -160 0 -160 0 0 470 0 470 160 0 160 0 0 150 0 150 460 0 460 0 0 -150z"/>
<path d="M3140 1590 l0 -1230 -1540 0 -1540 0 0 -150 0 -150 1690 0 1690 0 0
1380 0 1380 -150 0 -150 0 0 -1230z"/>
</g>
</svg>
