<svg viewBox="0 0 352.000000 352.000000">
    <g transform="translate(0.000000,352.000000) scale(0.100000,-0.100000)"
    fill="#000000" stroke="none">
    <path d="M100 3180 l0 -240 230 0 230 0 0 -230 0 -230 240 0 240 0 0 -240 0
    -240 240 0 240 0 0 -240 0 -240 -240 0 -240 0 0 -240 0 -240 -240 0 -240 0 0
    -240 0 -240 -230 0 -230 0 0 -230 0 -230 230 0 230 0 0 230 0 230 240 0 240 0
    0 240 0 240 240 0 240 0 0 240 0 240 240 0 240 0 0 -240 0 -240 240 0 240 0 0
    -240 0 -240 230 0 230 0 0 -230 0 -230 240 0 240 0 0 230 0 230 -240 0 -240 0
    0 240 0 240 -230 0 -230 0 0 240 0 240 -240 0 -240 0 0 240 0 240 240 0 240 0
    0 240 0 240 230 0 230 0 0 230 0 230 240 0 240 0 0 240 0 240 -240 0 -240 0 0
    -240 0 -240 -230 0 -230 0 0 -230 0 -230 -240 0 -240 0 0 -240 0 -240 -240 0
    -240 0 0 240 0 240 -240 0 -240 0 0 230 0 230 -240 0 -240 0 0 240 0 240 -230
    0 -230 0 0 -240z"/>
    </g>
</svg>
