
<svg version="1.0" xmlns="http://www.w3.org/2000/svg"
 width="346.000000pt" height="352.000000pt" viewBox="0 0 346.000000 352.000000"
 preserveAspectRatio="xMidYMid meet">
<g transform="translate(0.000000,352.000000) scale(0.100000,-0.100000)"
fill="#000000" stroke="none">
<path d="M1020 3160 l0 -240 -230 0 -230 0 0 -230 0 -230 -240 0 -240 0 0
-720 0 -720 240 0 240 0 0 -240 0 -240 230 0 230 0 0 -230 0 -230 720 0 720 0
0 230 0 230 240 0 240 0 0 240 0 240 230 0 230 0 0 720 0 720 -230 0 -230 0 0
230 0 230 -240 0 -240 0 0 240 0 240 -720 0 -720 0 0 -240z m1440 -470 l0
-230 240 0 240 0 0 -720 0 -720 -240 0 -240 0 0 -240 0 -240 -720 0 -720 0 0
240 0 240 -230 0 -230 0 0 720 0 720 230 0 230 0 0 230 0 230 720 0 720 0 0
-230z"/>
</g>
</svg>
