<svg width="80" height="170" viewBox="0 0 139 227" fill="none" xmlns="http://www.w3.org/2000/svg">

<path d="M87.8741 28.4436V29.8873H86.4056H84.9371V31.3309V32.7745H83.4685H82V38.5489V44.3233H83.4685H84.9371V45.767V47.2106H86.4056H87.8741V48.6542V50.0978H93.7483H99.6224V48.6542V47.2106H101.091H102.559V45.767V44.3233H104.028H105.497V38.5489V32.7745H104.028H102.559V31.3309V29.8873H101.091H99.6224V28.4436V27H93.7483H87.8741V28.4436ZM93.7483 34.2181V35.6617H92.2797H90.8112V37.1053V38.5489H89.3427H87.8741V35.6617V32.7745H90.8112H93.7483V34.2181Z" fill="var(--core-color)"/>
<path d="M38.8741 74.4436V75.8872H37.4056H35.9371V77.3308V78.7744H34.4685H33V84.5489V90.3233H34.4685H35.9371V91.7669V93.2105H37.4056H38.8741V94.6541V96.0977H44.7483H50.6224V94.6541V93.2105H52.0909H53.5594V91.7669V90.3233H55.028H56.4965V84.5489V78.7744H55.028H53.5594V77.3308V75.8872H52.0909H50.6224V74.4436V73H44.7483H38.8741V74.4436ZM44.7483 80.218V81.6617H43.2797H41.8112V83.1053V84.5489H40.3427H38.8741V81.6617V78.7744H41.8112H44.7483V80.218Z" fill="var(--core-color)"/>

<path d="M65.8741 158.444V159.887H64.4056H62.9371V161.331V162.774H61.4685H60V168.549V174.323H61.4685H62.9371V175.767V177.211H64.4056H65.8741V178.654V180.098H71.7483H77.6224V178.654V177.211H79.0909H80.5594V175.767V174.323H82.028H83.4965V168.549V162.774H82.028H80.5594V161.331V159.887H79.0909H77.6224V158.444V157H71.7483H65.8741V158.444ZM71.7483 164.218V165.662H70.2797H68.8112V167.105V168.549H67.3427H65.8741V165.662V162.774H68.8112H71.7483V164.218Z" fill="var(--core-color)"/>


<path d="M13.5268 2.0471V4.0942H11.1946H8.86242V6.36875V8.6433H6.76342H4.66443V10.9178V13.1924H2.33221H0V113.5V213.808H2.33221H4.66443V216.082V218.357H6.76342H8.86242V220.404V222.451H11.1946H13.5268V224.725V227H69.5H125.473V224.725V222.451H127.572H129.671V220.404V218.357H132.003H134.336V216.082V213.808H136.668H139V113.5V13.1924H136.668H134.336V10.9178V8.6433H132.003H129.671V6.36875V4.0942H127.572H125.473V2.0471V9.05991e-06H69.5H13.5268V2.0471ZM129.671 113.5V218.357H69.2668H8.86242V113.5V8.6433H69.2668H129.671V113.5Z" fill="var(--core-color)" class="core"/>
<path d="M17.7249 115.547V117.822H69.2668H120.809V115.547V113.273H69.2668H17.7249V115.547Z" fill="var(--core-color)"/>

</svg>
