<svg width="80" height="170" viewBox="0 0 139 227" fill="none" xmlns="http://www.w3.org/2000/svg">
<path d="M38.8741 26.4436V27.8872H37.4056H35.9371V29.3308V30.7744H34.4685H33V36.5489V42.3233H34.4685H35.9371V43.7669V45.2105H37.4056H38.8741V46.6541V48.0977H44.7483H50.6224V46.6541V45.2105H52.0909H53.5594V43.7669V42.3233H55.028H56.4965V36.5489V30.7744H55.028H53.5594V29.3308V27.8872H52.0909H50.6224V26.4436V25H44.7483H38.8741V26.4436ZM44.7483 32.218V33.6617H43.2797H41.8112V35.1053V36.5489H40.3427H38.8741V33.6617V30.7744H41.8112H44.7483V32.218Z" fill="black"/>
<path d="M87.8741 26.4436V27.8873H86.4056H84.9371V29.3309V30.7745H83.4685H82V36.5489V42.3233H83.4685H84.9371V43.767V45.2106H86.4056H87.8741V46.6542V48.0978H93.7483H99.6224V46.6542V45.2106H101.091H102.559V43.767V42.3233H104.028H105.497V36.5489V30.7745H104.028H102.559V29.3309V27.8873H101.091H99.6224V26.4436V25H93.7483H87.8741V26.4436ZM93.7483 32.2181V33.6617H92.2797H90.8112V35.1053V36.5489H89.3427H87.8741V33.6617V30.7745H90.8112H93.7483V32.2181Z" fill="black"/>
<path d="M87.8741 72.4436V73.8873H86.4056H84.9371V75.3309V76.7745H83.4685H82V82.5489V88.3233H83.4685H84.9371V89.767V91.2106H86.4056H87.8741V92.6542V94.0978H93.7483H99.6224V92.6542V91.2106H101.091H102.559V89.767V88.3233H104.028H105.497V82.5489V76.7745H104.028H102.559V75.3309V73.8873H101.091H99.6224V72.4436V71H93.7483H87.8741V72.4436ZM93.7483 78.2181V79.6617H92.2797H90.8112V81.1053V82.5489H89.3427H87.8741V79.6617V76.7745H90.8112H93.7483V78.2181Z" fill="black"/>
<path d="M38.8741 72.4436V73.8872H37.4056H35.9371V75.3308V76.7744H34.4685H33V82.5489V88.3233H34.4685H35.9371V89.7669V91.2105H37.4056H38.8741V92.6541V94.0977H44.7483H50.6224V92.6541V91.2105H52.0909H53.5594V89.7669V88.3233H55.028H56.4965V82.5489V76.7744H55.028H53.5594V75.3308V73.8872H52.0909H50.6224V72.4436V71H44.7483H38.8741V72.4436ZM44.7483 78.218V79.6617H43.2797H41.8112V81.1053V82.5489H40.3427H38.8741V79.6617V76.7744H41.8112H44.7483V78.218Z" fill="black"/>
<path d="M13.5268 2.0471V4.0942H11.1946H8.86242V6.36875V8.6433H6.76342H4.66443V10.9178V13.1924H2.33221H0V113.5V213.808H2.33221H4.66443V216.082V218.357H6.76342H8.86242V220.404V222.451H11.1946H13.5268V224.725V227H69.5H125.473V224.725V222.451H127.572H129.671V220.404V218.357H132.003H134.336V216.082V213.808H136.668H139V113.5V13.1924H136.668H134.336V10.9178V8.6433H132.003H129.671V6.36875V4.0942H127.572H125.473V2.0471V9.05991e-06H69.5H13.5268V2.0471ZM129.671 113.5V218.357H69.2668H8.86242V113.5V8.6433H69.2668H129.671V113.5Z" fill="black"/>
<path d="M17.7249 115.547V117.822H69.2668H120.809V115.547V113.273H69.2668H17.7249V115.547Z" fill="black"/>
<path d="M91.8741 134.444V135.887H90.4056H88.9371V137.331V138.774H87.4685H86V144.549V150.323H87.4685H88.9371V151.767V153.211H90.4056H91.8741V154.654V156.098H97.7483H103.622V154.654V153.211H105.091H106.559V151.767V150.323H108.028H109.497V144.549V138.774H108.028H106.559V137.331V135.887H105.091H103.622V134.444V133H97.7483H91.8741V134.444ZM97.7483 140.218V141.662H96.2797H94.8112V143.105V144.549H93.3427H91.8741V141.662V138.774H94.8112H97.7483V140.218Z" fill="black"/>
<path d="M42.8741 180.444V181.887H41.4056H39.9371V183.331V184.774H38.4685H37V190.549V196.323H38.4685H39.9371V197.767V199.211H41.4056H42.8741V200.654V202.098H48.7483H54.6224V200.654V199.211H56.0909H57.5594V197.767V196.323H59.028H60.4965V190.549V184.774H59.028H57.5594V183.331V181.887H56.0909H54.6224V180.444V179H48.7483H42.8741V180.444ZM48.7483 186.218V187.662H47.2797H45.8112V189.105V190.549H44.3427H42.8741V187.662V184.774H45.8112H48.7483V186.218Z" fill="black"/>
<path d="M67.8741 157.444V158.887H66.4056H64.9371V160.331V161.774H63.4685H62V167.549V173.323H63.4685H64.9371V174.767V176.21H66.4056H67.8741V177.654V179.098H73.7483H79.6224V177.654V176.21H81.0909H82.5594V174.767V173.323H84.028H85.4965V167.549V161.774H84.028H82.5594V160.331V158.887H81.0909H79.6224V157.444V156H73.7483H67.8741V157.444ZM73.7483 163.218V164.662H72.2797H70.8112V166.105V167.549H69.3427H67.8741V164.662V161.774H70.8112H73.7483V163.218Z" fill="black"/>
</svg>
