<svg width="80" height="170" viewBox="0 0 139 227" fill="none" xmlns="http://www.w3.org/2000/svg">
<path d="M87.8741 28.4436V29.8873H86.4056H84.9371V31.3309V32.7745H83.4685H82V38.5489V44.3233H83.4685H84.9371V45.767V47.2106H86.4056H87.8741V48.6542V50.0978H93.7483H99.6224V48.6542V47.2106H101.091H102.559V45.767V44.3233H104.028H105.497V38.5489V32.7745H104.028H102.559V31.3309V29.8873H101.091H99.6224V28.4436V27H93.7483H87.8741V28.4436ZM93.7483 34.2181V35.6617H92.2797H90.8112V37.1053V38.5489H89.3427H87.8741V35.6617V32.7745H90.8112H93.7483V34.2181Z" fill="black"/>
<path d="M38.8741 74.4436V75.8872H37.4056H35.9371V77.3308V78.7744H34.4685H33V84.5489V90.3233H34.4685H35.9371V91.7669V93.2105H37.4056H38.8741V94.6541V96.0977H44.7483H50.6224V94.6541V93.2105H52.0909H53.5594V91.7669V90.3233H55.028H56.4965V84.5489V78.7744H55.028H53.5594V77.3308V75.8872H52.0909H50.6224V74.4436V73H44.7483H38.8741V74.4436ZM44.7483 80.218V81.6617H43.2797H41.8112V83.1053V84.5489H40.3427H38.8741V81.6617V78.7744H41.8112H44.7483V80.218Z" fill="black"/>
<path d="M13.5268 2.0471V4.0942H11.1946H8.86242V6.36875V8.6433H6.76342H4.66443V10.9178V13.1924H2.33221H0V113.5V213.808H2.33221H4.66443V216.082V218.357H6.76342H8.86242V220.404V222.451H11.1946H13.5268V224.725V227H69.5H125.473V224.725V222.451H127.572H129.671V220.404V218.357H132.003H134.336V216.082V213.808H136.668H139V113.5V13.1924H136.668H134.336V10.9178V8.6433H132.003H129.671V6.36875V4.0942H127.572H125.473V2.0471V9.05991e-06H69.5H13.5268V2.0471ZM129.671 113.5V218.357H69.2668H8.86242V113.5V8.6433H69.2668H129.671V113.5Z" fill="black"/>
<path d="M17.7249 115.547V117.822H69.2668H120.809V115.547V113.273H69.2668H17.7249V115.547Z" fill="black"/>
<path d="M87.8741 131.444V132.887H86.4056H84.9371V134.331V135.774H83.4685H82V141.549V147.323H83.4685H84.9371V148.767V150.211H86.4056H87.8741V151.654V153.098H93.7483H99.6224V151.654V150.211H101.091H102.559V148.767V147.323H104.028H105.497V141.549V135.774H104.028H102.559V134.331V132.887H101.091H99.6224V131.444V130H93.7483H87.8741V131.444ZM93.7483 137.218V138.662H92.2797H90.8112V140.105V141.549H89.3427H87.8741V138.662V135.774H90.8112H93.7483V137.218Z" fill="black"/>
<path d="M38.8741 177.444V178.887H37.4056H35.9371V180.331V181.774H34.4685H33V187.549V193.323H34.4685H35.9371V194.767V196.211H37.4056H38.8741V197.654V199.098H44.7483H50.6224V197.654V196.211H52.0909H53.5594V194.767V193.323H55.028H56.4965V187.549V181.774H55.028H53.5594V180.331V178.887H52.0909H50.6224V177.444V176H44.7483H38.8741V177.444ZM44.7483 183.218V184.662H43.2797H41.8112V186.105V187.549H40.3427H38.8741V184.662V181.774H41.8112H44.7483V183.218Z" fill="black"/>
<path d="M63.8741 154.444V155.887H62.4056H60.9371V157.331V158.774H59.4685H58V164.549V170.323H59.4685H60.9371V171.767V173.21H62.4056H63.8741V174.654V176.098H69.7483H75.6224V174.654V173.21H77.0909H78.5594V171.767V170.323H80.028H81.4965V164.549V158.774H80.028H78.5594V157.331V155.887H77.0909H75.6224V154.444V153H69.7483H63.8741V154.444ZM69.7483 160.218V161.662H68.2797H66.8112V163.105V164.549H65.3427H63.8741V161.662V158.774H66.8112H69.7483V160.218Z" fill="black"/>
</svg>
