<svg width="80" height="170" viewBox="0 0 139 227" fill="none" xmlns="http://www.w3.org/2000/svg">
    <path d="M13.5268 2.0471V4.09419H11.1946H8.86242V6.36874V8.6433H6.76342H4.66443V10.9178V13.1924H2.33221H0V113.5V213.808H2.33221H4.66443V216.082V218.357H6.76342H8.86242V220.404V222.451H11.1946H13.5268V224.725V227H69.5H125.473V224.725V222.451H127.572H129.671V220.404V218.357H132.003H134.336V216.082V213.808H136.668H139V113.5V13.1924H136.668H134.336V10.9178V8.6433H132.003H129.671V6.36874V4.09419H127.572H125.473V2.0471V1.52588e-05H69.5H13.5268V2.0471ZM129.671 113.5V218.357H69.2668H8.86242V113.5V8.6433H69.2668H129.671V113.5Z" fill="black"/>
    <path d="M17.7249 115.547V117.822H69.2668H120.809V115.547V113.273H69.2668H17.7249V115.547Z" fill="black"/>
</svg>