<svg width="80" height="170" viewBox="0 0 139 227" fill="none" xmlns="http://www.w3.org/2000/svg">
<path d="M41.8741 134.444V135.887H40.4056H38.9371V137.331V138.774H37.4685H36V144.549V150.323H37.4685H38.9371V151.767V153.211H40.4056H41.8741V154.654V156.098H47.7483H53.6224V154.654V153.211H55.0909H56.5594V151.767V150.323H58.028H59.4965V144.549V138.774H58.028H56.5594V137.331V135.887H55.0909H53.6224V134.444V133H47.7483H41.8741V134.444ZM47.7483 140.218V141.662H46.2797H44.8112V143.105V144.549H43.3427H41.8741V141.662V138.774H44.8112H47.7483V140.218Z" fill="black"/>
<path d="M90.8741 134.444V135.887H89.4056H87.9371V137.331V138.774H86.4685H85V144.549V150.323H86.4685H87.9371V151.767V153.211H89.4056H90.8741V154.654V156.098H96.7483H102.622V154.654V153.211H104.091H105.559V151.767V150.323H107.028H108.497V144.549V138.774H107.028H105.559V137.331V135.887H104.091H102.622V134.444V133H96.7483H90.8741V134.444ZM96.7483 140.218V141.662H95.2797H93.8112V143.105V144.549H92.3427H90.8741V141.662V138.774H93.8112H96.7483V140.218Z" fill="black"/>
<path d="M90.8741 180.444V181.887H89.4056H87.9371V183.331V184.774H86.4685H85V190.549V196.323H86.4685H87.9371V197.767V199.211H89.4056H90.8741V200.654V202.098H96.7483H102.622V200.654V199.211H104.091H105.559V197.767V196.323H107.028H108.497V190.549V184.774H107.028H105.559V183.331V181.887H104.091H102.622V180.444V179H96.7483H90.8741V180.444ZM96.7483 186.218V187.662H95.2797H93.8112V189.105V190.549H92.3427H90.8741V187.662V184.774H93.8112H96.7483V186.218Z" fill="black"/>
<path d="M41.8741 180.444V181.887H40.4056H38.9371V183.331V184.774H37.4685H36V190.549V196.323H37.4685H38.9371V197.767V199.211H40.4056H41.8741V200.654V202.098H47.7483H53.6224V200.654V199.211H55.0909H56.5594V197.767V196.323H58.028H59.4965V190.549V184.774H58.028H56.5594V183.331V181.887H55.0909H53.6224V180.444V179H47.7483H41.8741V180.444ZM47.7483 186.218V187.662H46.2797H44.8112V189.105V190.549H43.3427H41.8741V187.662V184.774H44.8112H47.7483V186.218Z" fill="black"/>
<path d="M66.8741 157.444V158.887H65.4056H63.9371V160.331V161.774H62.4685H61V167.549V173.323H62.4685H63.9371V174.767V176.21H65.4056H66.8741V177.654V179.098H72.7483H78.6224V177.654V176.21H80.0909H81.5594V174.767V173.323H83.028H84.4965V167.549V161.774H83.028H81.5594V160.331V158.887H80.0909H78.6224V157.444V156H72.7483H66.8741V157.444ZM72.7483 163.218V164.662H71.2797H69.8112V166.105V167.549H68.3427H66.8741V164.662V161.774H69.8112H72.7483V163.218Z" fill="black"/>
<path d="M13.5268 2.0471V4.0942H11.1946H8.86242V6.36875V8.6433H6.76342H4.66443V10.9178V13.1924H2.33221H0V113.5V213.808H2.33221H4.66443V216.082V218.357H6.76342H8.86242V220.404V222.451H11.1946H13.5268V224.725V227H69.5H125.473V224.725V222.451H127.572H129.671V220.404V218.357H132.003H134.336V216.082V213.808H136.668H139V113.5V13.1924H136.668H134.336V10.9178V8.6433H132.003H129.671V6.36875V4.0942H127.572H125.473V2.0471V9.05991e-06H69.5H13.5268V2.0471ZM129.671 113.5V218.357H69.2668H8.86242V113.5V8.6433H69.2668H129.671V113.5Z" fill="black"/>
<path d="M17.7249 115.547V117.822H69.2668H120.809V115.547V113.273H69.2668H17.7249V115.547Z" fill="black"/>
<path d="M90.8741 27.4436V28.8873H89.4056H87.9371V30.3309V31.7745H86.4685H85V37.5489V43.3233H86.4685H87.9371V44.767V46.2106H89.4056H90.8741V47.6542V49.0978H96.7483H102.622V47.6542V46.2106H104.091H105.559V44.767V43.3233H107.028H108.497V37.5489V31.7745H107.028H105.559V30.3309V28.8873H104.091H102.622V27.4436V26H96.7483H90.8741V27.4436ZM96.7483 33.2181V34.6617H95.2797H93.8112V36.1053V37.5489H92.3427H90.8741V34.6617V31.7745H93.8112H96.7483V33.2181Z" fill="black"/>
<path d="M41.8741 73.4436V74.8872H40.4056H38.9371V76.3308V77.7744H37.4685H36V83.5489V89.3233H37.4685H38.9371V90.7669V92.2105H40.4056H41.8741V93.6541V95.0977H47.7483H53.6224V93.6541V92.2105H55.0909H56.5594V90.7669V89.3233H58.028H59.4965V83.5489V77.7744H58.028H56.5594V76.3308V74.8872H55.0909H53.6224V73.4436V72H47.7483H41.8741V73.4436ZM47.7483 79.218V80.6617H46.2797H44.8112V82.1053V83.5489H43.3427H41.8741V80.6617V77.7744H44.8112H47.7483V79.218Z" fill="black"/>
<path d="M66.8741 50.4436V51.8872H65.4056H63.9371V53.3308V54.7744H62.4685H61V60.5488V66.3233H62.4685H63.9371V67.7669V69.2105H65.4056H66.8741V70.6541V72.0977H72.7483H78.6224V70.6541V69.2105H80.0909H81.5594V67.7669V66.3233H83.028H84.4965V60.5488V54.7744H83.028H81.5594V53.3308V51.8872H80.0909H78.6224V50.4436V49H72.7483H66.8741V50.4436ZM72.7483 56.218V57.6616H71.2797H69.8112V59.1052V60.5488H68.3427H66.8741V57.6616V54.7744H69.8112H72.7483V56.218Z" fill="black"/>
</svg>
