<svg width="80" height="170" viewBox="0 0 139 227" fill="none" xmlns="http://www.w3.org/2000/svg">
<path d="M38.8741 26.4436V27.8872H37.4056H35.9371V29.3308V30.7744H34.4685H33V36.5489V42.3233H34.4685H35.9371V43.7669V45.2105H37.4056H38.8741V46.6541V48.0977H44.7483H50.6224V46.6541V45.2105H52.0909H53.5594V43.7669V42.3233H55.028H56.4965V36.5489V30.7744H55.028H53.5594V29.3308V27.8872H52.0909H50.6224V26.4436V25H44.7483H38.8741V26.4436ZM44.7483 32.218V33.6617H43.2797H41.8112V35.1053V36.5489H40.3427H38.8741V33.6617V30.7744H41.8112H44.7483V32.218Z" fill="black"/>
<path d="M87.8741 26.4436V27.8873H86.4056H84.9371V29.3309V30.7745H83.4685H82V36.5489V42.3233H83.4685H84.9371V43.767V45.2106H86.4056H87.8741V46.6542V48.0978H93.7483H99.6224V46.6542V45.2106H101.091H102.559V43.767V42.3233H104.028H105.497V36.5489V30.7745H104.028H102.559V29.3309V27.8873H101.091H99.6224V26.4436V25H93.7483H87.8741V26.4436ZM93.7483 32.2181V33.6617H92.2797H90.8112V35.1053V36.5489H89.3427H87.8741V33.6617V30.7745H90.8112H93.7483V32.2181Z" fill="black"/>
<path d="M87.8741 72.4436V73.8873H86.4056H84.9371V75.3309V76.7745H83.4685H82V82.5489V88.3233H83.4685H84.9371V89.767V91.2106H86.4056H87.8741V92.6542V94.0978H93.7483H99.6224V92.6542V91.2106H101.091H102.559V89.767V88.3233H104.028H105.497V82.5489V76.7745H104.028H102.559V75.3309V73.8873H101.091H99.6224V72.4436V71H93.7483H87.8741V72.4436ZM93.7483 78.2181V79.6617H92.2797H90.8112V81.1053V82.5489H89.3427H87.8741V79.6617V76.7745H90.8112H93.7483V78.2181Z" fill="black"/>
<path d="M38.8741 72.4436V73.8872H37.4056H35.9371V75.3308V76.7744H34.4685H33V82.5489V88.3233H34.4685H35.9371V89.7669V91.2105H37.4056H38.8741V92.6541V94.0977H44.7483H50.6224V92.6541V91.2105H52.0909H53.5594V89.7669V88.3233H55.028H56.4965V82.5489V76.7744H55.028H53.5594V75.3308V73.8872H52.0909H50.6224V72.4436V71H44.7483H38.8741V72.4436ZM44.7483 78.218V79.6617H43.2797H41.8112V81.1053V82.5489H40.3427H38.8741V79.6617V76.7744H41.8112H44.7483V78.218Z" fill="black"/>
<path d="M38.8741 133.444V134.887H37.4056H35.9371V136.331V137.774H34.4685H33V143.549V149.323H34.4685H35.9371V150.767V152.211H37.4056H38.8741V153.654V155.098H44.7483H50.6224V153.654V152.211H52.0909H53.5594V150.767V149.323H55.028H56.4965V143.549V137.774H55.028H53.5594V136.331V134.887H52.0909H50.6224V133.444V132H44.7483H38.8741V133.444ZM44.7483 139.218V140.662H43.2797H41.8112V142.105V143.549H40.3427H38.8741V140.662V137.774H41.8112H44.7483V139.218Z" fill="black"/>
<path d="M87.8741 133.444V134.887H86.4056H84.9371V136.331V137.774H83.4685H82V143.549V149.323H83.4685H84.9371V150.767V152.211H86.4056H87.8741V153.654V155.098H93.7483H99.6224V153.654V152.211H101.091H102.559V150.767V149.323H104.028H105.497V143.549V137.774H104.028H102.559V136.331V134.887H101.091H99.6224V133.444V132H93.7483H87.8741V133.444ZM93.7483 139.218V140.662H92.2797H90.8112V142.105V143.549H89.3427H87.8741V140.662V137.774H90.8112H93.7483V139.218Z" fill="black"/>
<path d="M87.8741 179.444V180.887H86.4056H84.9371V182.331V183.774H83.4685H82V189.549V195.323H83.4685H84.9371V196.767V198.211H86.4056H87.8741V199.654V201.098H93.7483H99.6224V199.654V198.211H101.091H102.559V196.767V195.323H104.028H105.497V189.549V183.774H104.028H102.559V182.331V180.887H101.091H99.6224V179.444V178H93.7483H87.8741V179.444ZM93.7483 185.218V186.662H92.2797H90.8112V188.105V189.549H89.3427H87.8741V186.662V183.774H90.8112H93.7483V185.218Z" fill="black"/>
<path d="M38.8741 179.444V180.887H37.4056H35.9371V182.331V183.774H34.4685H33V189.549V195.323H34.4685H35.9371V196.767V198.211H37.4056H38.8741V199.654V201.098H44.7483H50.6224V199.654V198.211H52.0909H53.5594V196.767V195.323H55.028H56.4965V189.549V183.774H55.028H53.5594V182.331V180.887H52.0909H50.6224V179.444V178H44.7483H38.8741V179.444ZM44.7483 185.218V186.662H43.2797H41.8112V188.105V189.549H40.3427H38.8741V186.662V183.774H41.8112H44.7483V185.218Z" fill="black"/>
<path d="M63.8741 156.444V157.887H62.4056H60.9371V159.331V160.774H59.4685H58V166.549V172.323H59.4685H60.9371V173.767V175.21H62.4056H63.8741V176.654V178.098H69.7483H75.6224V176.654V175.21H77.0909H78.5594V173.767V172.323H80.028H81.4965V166.549V160.774H80.028H78.5594V159.331V157.887H77.0909H75.6224V156.444V155H69.7483H63.8741V156.444ZM69.7483 162.218V163.662H68.2797H66.8112V165.105V166.549H65.3427H63.8741V163.662V160.774H66.8112H69.7483V162.218Z" fill="black"/>
<path d="M13.5268 2.0471V4.0942H11.1946H8.86242V6.36875V8.6433H6.76342H4.66443V10.9178V13.1924H2.33221H0V113.5V213.808H2.33221H4.66443V216.082V218.357H6.76342H8.86242V220.404V222.451H11.1946H13.5268V224.725V227H69.5H125.473V224.725V222.451H127.572H129.671V220.404V218.357H132.003H134.336V216.082V213.808H136.668H139V113.5V13.1924H136.668H134.336V10.9178V8.6433H132.003H129.671V6.36875V4.0942H127.572H125.473V2.0471V9.05991e-06H69.5H13.5268V2.0471ZM129.671 113.5V218.357H69.2668H8.86242V113.5V8.6433H69.2668H129.671V113.5Z" fill="black"/>
<path d="M17.7249 115.547V117.822H69.2668H120.809V115.547V113.273H69.2668H17.7249V115.547Z" fill="black"/>
</svg>
