<svg width="80" height="170" viewBox="0 0 139 227" fill="none" xmlns="http://www.w3.org/2000/svg">
<path d="M13.5268 2.0471V4.0942H11.1946H8.86242V6.36875V8.6433H6.76342H4.66443V10.9178V13.1924H2.33221H0V113.5V213.808H2.33221H4.66443V216.082V218.357H6.76342H8.86242V220.404V222.451H11.1946H13.5268V224.725V227H69.5H125.473V224.725V222.451H127.572H129.671V220.404V218.357H132.003H134.336V216.082V213.808H136.668H139V113.5V13.1924H136.668H134.336V10.9178V8.6433H132.003H129.671V6.36875V4.0942H127.572H125.473V2.0471V9.05991e-06H69.5H13.5268V2.0471ZM129.671 113.5V218.357H69.2668H8.86242V113.5V8.6433H69.2668H129.671V113.5Z" fill="black"/>
<path d="M17.7249 115.547V117.822H69.2668H120.809V115.547V113.273H69.2668H17.7249V115.547Z" fill="black"/>
<path d="M65.8741 158.444V159.887H64.4056H62.9371V161.331V162.774H61.4685H60V168.549V174.323H61.4685H62.9371V175.767V177.211H64.4056H65.8741V178.654V180.098H71.7483H77.6224V178.654V177.211H79.0909H80.5594V175.767V174.323H82.028H83.4965V168.549V162.774H82.028H80.5594V161.331V159.887H79.0909H77.6224V158.444V157H71.7483H65.8741V158.444ZM71.7483 164.218V165.662H70.2797H68.8112V167.105V168.549H67.3427H65.8741V165.662V162.774H68.8112H71.7483V164.218Z" fill="black"/>
<path d="M90.8741 27.4436V28.8873H89.4056H87.9371V30.3309V31.7745H86.4685H85V37.5489V43.3233H86.4685H87.9371V44.767V46.2106H89.4056H90.8741V47.6542V49.0978H96.7483H102.622V47.6542V46.2106H104.091H105.559V44.767V43.3233H107.028H108.497V37.5489V31.7745H107.028H105.559V30.3309V28.8873H104.091H102.622V27.4436V26H96.7483H90.8741V27.4436ZM96.7483 33.2181V34.6617H95.2797H93.8112V36.1053V37.5489H92.3427H90.8741V34.6617V31.7745H93.8112H96.7483V33.2181Z" fill="black"/>
<path d="M41.8741 73.4436V74.8872H40.4056H38.9371V76.3308V77.7744H37.4685H36V83.5489V89.3233H37.4685H38.9371V90.7669V92.2105H40.4056H41.8741V93.6541V95.0977H47.7483H53.6224V93.6541V92.2105H55.0909H56.5594V90.7669V89.3233H58.028H59.4965V83.5489V77.7744H58.028H56.5594V76.3308V74.8872H55.0909H53.6224V73.4436V72H47.7483H41.8741V73.4436ZM47.7483 79.218V80.6617H46.2797H44.8112V82.1053V83.5489H43.3427H41.8741V80.6617V77.7744H44.8112H47.7483V79.218Z" fill="black"/>
<path d="M66.8741 50.4436V51.8872H65.4056H63.9371V53.3308V54.7744H62.4685H61V60.5488V66.3233H62.4685H63.9371V67.7669V69.2105H65.4056H66.8741V70.6541V72.0977H72.7483H78.6224V70.6541V69.2105H80.0909H81.5594V67.7669V66.3233H83.028H84.4965V60.5488V54.7744H83.028H81.5594V53.3308V51.8872H80.0909H78.6224V50.4436V49H72.7483H66.8741V50.4436ZM72.7483 56.218V57.6616H71.2797H69.8112V59.1052V60.5488H68.3427H66.8741V57.6616V54.7744H69.8112H72.7483V56.218Z" fill="black"/>
</svg>
