<svg viewBox="0 0 946.000000 1010.000000">
<g transform="translate(0.000000,1010.000000) scale(0.100000,-0.100000)"
fill="#000000">
<path d="M60 5060 l0 -4980 420 0 420 0 0 240 0 240 -180 0 -180 0 0 1740 0
1740 2100 0 2100 0 0 -1260 0 -1260 1140 0 1140 0 0 240 0 240 -900 0 -900 0
0 2580 0 2580 -240 0 -240 0 0 -1320 0 -1320 -2100 0 -2100 0 0 2520 0 2520
4440 0 4440 0 0 240 0 240 -4680 0 -4680 0 0 -4980z m9240 4800 l0 -60 -4500
0 -4500 0 0 -4740 0 -4740 240 0 240 0 0 -60 0 -60 -300 0 -300 0 0 4860 0
4860 4560 0 4560 0 0 -60z m-4200 -3960 l0 -780 -120 0 -120 0 0 780 0 780
120 0 120 0 0 -780z m-1200 -1620 l0 -120 -1440 0 -1440 0 0 120 0 120 1440 0
1440 0 0 -120z m1200 -840 l0 -360 -120 0 -120 0 0 360 0 360 120 0 120 0 0
-360z m0 -1680 l0 -120 -120 0 -120 0 0 120 0 120 120 0 120 0 0 -120z m1320
0 l0 -120 -300 0 -300 0 0 120 0 120 300 0 300 0 0 -120z"/>
<path d="M1221 9356 c-8 -9 -11 -42 -9 -93 l3 -78 93 -3 92 -3 0 -49 0 -49
-92 -3 -93 -3 0 -90 0 -90 93 -3 92 -3 0 96 0 95 50 0 49 0 3 -92 3 -93 90 0
90 0 0 90 0 90 -92 3 -93 3 0 49 0 50 95 0 96 0 -3 93 -3 92 -90 0 -90 0 -3
-92 -3 -93 -49 0 -49 0 -3 93 -3 92 -81 3 c-61 2 -84 -1 -93 -12z"/>
<path d="M8707 9364 c-4 -4 -7 -47 -7 -96 l0 -88 95 0 95 0 0 -50 0 -50 -95 0
-96 0 3 -92 3 -93 90 0 90 0 3 93 3 92 49 0 49 0 3 -92 3 -93 90 0 90 0 3 93
3 92 -96 0 -95 0 0 50 0 50 95 0 96 0 -3 93 -3 92 -90 0 -90 0 -3 -92 -3 -93
-49 0 -49 0 -3 93 -3 92 -85 3 c-47 1 -89 0 -93 -4z"/>
<path d="M5634 9257 c-3 -8 -4 -49 -2 -93 l3 -79 93 -3 92 -3 0 -49 0 -50 -95
0 -96 0 3 -92 3 -93 90 0 90 0 3 93 3 92 49 0 49 0 3 -92 3 -93 81 -3 c102 -4
106 0 102 105 l-3 78 -92 3 -93 3 0 49 0 49 93 3 92 3 0 90 0 90 -92 3 -93 3
0 -96 0 -95 -50 0 -49 0 -3 93 -3 92 -88 3 c-67 2 -89 0 -93 -11z"/>
<path d="M3424 9167 c-2 -7 -4 -52 -2 -98 l3 -84 93 -3 92 -3 0 -44 0 -44 -92
-3 -93 -3 -3 -92 -3 -93 96 0 95 0 0 95 0 95 50 0 50 0 0 -95 0 -95 95 0 96 0
-3 93 -3 92 -92 3 -93 3 0 44 0 44 93 3 92 3 0 95 0 95 -90 0 -90 0 -3 -97 -3
-98 -49 0 -49 0 -3 98 -3 97 -88 3 c-67 2 -89 0 -93 -11z"/>
<path d="M2100 7160 l0 -1320 300 0 300 0 0 1080 0 1080 3120 0 3120 0 0 -480
0 -480 -1380 0 -1380 0 0 -240 0 -240 1380 0 1380 0 0 -1440 0 -1440 -1140 0
-1140 0 0 660 0 660 300 0 300 0 0 -180 0 -180 240 0 240 0 0 480 0 480 -780
0 -780 0 0 -1200 0 -1200 1380 0 1380 0 0 -1320 0 -1320 -2760 0 -2760 0 0
900 0 900 -780 0 -780 0 0 -240 0 -240 540 0 540 0 0 -900 0 -900 3240 0 3240
0 0 4200 0 4200 -3660 0 -3660 0 0 -1320z m480 1080 l0 -120 -180 0 -180 0 0
120 0 120 180 0 180 0 0 -120z m3480 0 l0 -120 -1260 0 -1260 0 0 120 0 120
1260 0 1260 0 0 -120z m3240 -3960 l0 -4080 -3120 0 -3120 0 0 60 0 60 3060 0
3060 0 0 4020 0 4020 60 0 60 0 0 -4080z m-2400 3900 l0 -60 -360 0 -360 0 0
60 0 60 360 0 360 0 0 -60z m-4320 -1200 l0 -780 -180 0 -180 0 0 780 0 780
180 0 180 0 0 -780z m6120 -180 l0 -120 -780 0 -780 0 0 120 0 120 780 0 780
0 0 -120z m-2160 -1440 l0 -120 -120 0 -120 0 0 120 0 120 120 0 120 0 0 -120z
m720 0 l0 -120 -180 0 -180 0 0 120 0 120 180 0 180 0 0 -120z m120 -1920 l0
-120 -420 0 -420 0 0 120 0 120 420 0 420 0 0 -120z m1560 60 l0 -60 -480 0
-480 0 0 60 0 60 480 0 480 0 0 -60z m-6000 -1380 l0 -120 -300 0 -300 0 0
120 0 120 300 0 300 0 0 -120z m360 -1080 l0 -360 -60 0 -60 0 0 360 0 360 60
0 60 0 0 -360z"/>
<path d="M741 7916 c-8 -9 -11 -42 -9 -93 l3 -78 93 -3 92 -3 0 -49 0 -49 -92
-3 -93 -3 0 -90 0 -90 93 -3 92 -3 0 96 0 95 50 0 49 0 3 -92 3 -93 90 0 90 0
0 90 0 90 -92 3 -93 3 0 49 0 50 95 0 96 0 -3 93 -3 92 -90 0 -90 0 -3 -92 -3
-93 -49 0 -49 0 -3 93 -3 92 -81 3 c-61 2 -84 -1 -93 -12z"/>
<path d="M3524 7727 c-3 -8 -4 -52 -2 -98 l3 -84 93 -3 92 -3 0 -44 0 -44 -92
-3 -93 -3 -3 -93 -3 -93 93 3 93 3 3 93 3 92 44 0 44 0 3 -92 3 -93 95 0 95 0
3 78 c2 50 -1 84 -9 93 -8 10 -36 14 -100 14 l-89 0 0 45 0 45 88 0 c55 0 92
4 100 12 7 7 12 42 12 88 0 46 -5 81 -12 88 -7 7 -42 12 -88 12 -46 0 -81 -5
-88 -12 -8 -8 -12 -45 -12 -100 l0 -88 -45 0 -45 0 0 88 c0 55 -4 92 -12 100
-17 17 -167 16 -174 -1z"/>
<path d="M5542 7728 c-16 -16 -16 -160 0 -176 7 -7 44 -12 95 -12 l83 0 0 -45
0 -45 -84 0 c-60 0 -87 -4 -95 -14 -8 -9 -11 -43 -9 -93 l3 -78 93 -3 92 -3 0
96 0 95 50 0 50 0 0 -95 0 -95 95 0 96 0 -3 93 -3 92 -92 3 -93 3 0 44 0 44
93 3 92 3 0 95 0 95 -90 0 -90 0 -3 -97 -3 -98 -49 0 -49 0 -3 98 -3 97 -80 3
c-54 2 -84 -1 -93 -10z"/>
<path d="M6880 6295 l0 -95 95 0 95 0 0 -50 0 -50 -95 0 -96 0 3 -92 3 -93 78
-3 c50 -2 84 1 93 9 10 8 14 35 14 95 l0 84 45 0 45 0 0 -83 c0 -51 5 -88 12
-95 18 -18 162 -16 177 2 8 9 11 43 9 93 l-3 78 -97 3 -98 3 0 49 0 49 98 3
97 3 0 90 0 90 -95 0 -95 0 -3 -92 -3 -93 -44 0 -44 0 -3 93 -3 92 -92 3 -93
3 0 -96z"/>
<path d="M1022 6008 l3 -93 93 -3 92 -3 0 -44 0 -44 -92 -3 -93 -3 0 -95 0
-95 90 0 90 0 3 98 3 97 49 0 49 0 3 -97 3 -98 90 0 90 0 0 95 0 95 -92 3 -93
3 0 44 0 44 93 3 92 3 3 93 3 92 -96 0 -95 0 0 -95 0 -95 -50 0 -50 0 0 95 0
95 -95 0 -96 0 3 -92z"/>
<path d="M4002 6008 l3 -93 93 -3 92 -3 0 -44 0 -44 -92 -3 -93 -3 0 -95 0
-95 78 -3 c50 -2 84 1 93 9 10 8 14 36 14 100 l0 89 45 0 45 0 0 -88 c0 -55 4
-92 12 -100 16 -16 160 -16 176 0 16 16 16 160 0 176 -8 8 -45 12 -100 12
l-88 0 0 45 0 45 89 0 c64 0 92 4 100 14 8 9 11 43 9 93 l-3 78 -95 0 -95 0
-3 -92 -3 -93 -44 0 -44 0 -3 93 -3 92 -93 3 -93 3 3 -93z"/>
<path d="M5342 6008 l3 -93 93 -3 92 -3 0 -44 0 -44 -92 -3 -93 -3 0 -95 0
-95 90 0 90 0 3 98 3 97 49 0 49 0 3 -97 3 -98 90 0 90 0 0 95 0 95 -92 3 -93
3 0 44 0 44 93 3 92 3 3 93 3 92 -96 0 -95 0 0 -95 0 -95 -50 0 -50 0 0 95 0
95 -95 0 -96 0 3 -92z"/>
<path d="M8132 5328 c-7 -7 -12 -42 -12 -88 0 -46 5 -81 12 -88 8 -8 45 -12
100 -12 l88 0 0 -45 0 -45 -89 0 c-64 0 -92 -4 -100 -14 -8 -9 -11 -43 -9 -93
l3 -78 95 0 95 0 3 93 3 92 44 0 44 0 3 -92 3 -93 93 -3 93 -3 -3 93 -3 93
-92 3 -93 3 0 44 0 44 93 3 92 3 0 95 0 95 -78 3 c-50 2 -84 -1 -93 -9 -10 -8
-14 -36 -14 -100 l0 -89 -45 0 -45 0 0 88 c0 55 -4 92 -12 100 -7 7 -42 12
-88 12 -46 0 -81 -5 -88 -12z"/>
<path d="M2274 5227 c-3 -8 -4 -49 -2 -93 l3 -79 93 -3 92 -3 0 -49 0 -49 -92
-3 -93 -3 0 -90 0 -90 93 -3 92 -3 0 96 0 95 50 0 50 0 0 -95 0 -96 93 3 92 3
0 90 0 90 -92 3 -93 3 0 49 0 49 93 3 92 3 0 90 0 90 -92 3 -93 3 0 -96 0 -95
-50 0 -50 0 0 95 0 95 -90 0 c-67 0 -92 -4 -96 -13z"/>
<path d="M5542 4368 c-16 -16 -16 -160 0 -176 7 -7 44 -12 95 -12 l83 0 0 -45
0 -45 -84 0 c-60 0 -87 -4 -95 -14 -8 -9 -11 -43 -9 -93 l3 -78 93 -3 92 -3 0
96 0 95 50 0 50 0 0 -95 0 -95 95 0 96 0 -3 93 -3 92 -92 3 -93 3 0 44 0 44
93 3 92 3 0 95 0 95 -90 0 -90 0 -3 -97 -3 -98 -49 0 -49 0 -3 98 -3 97 -80 3
c-54 2 -84 -1 -93 -10z"/>
<path d="M7074 4367 c-2 -7 -4 -52 -2 -98 l3 -84 93 -3 92 -3 0 -44 0 -44 -92
-3 -93 -3 -3 -92 -3 -93 96 0 95 0 0 95 0 95 50 0 50 0 0 -95 0 -96 93 3 92 3
3 78 c2 50 -1 84 -9 93 -8 10 -35 14 -95 14 l-84 0 0 45 0 45 83 0 c51 0 88 5
95 12 18 18 16 162 -2 177 -9 8 -43 11 -93 9 l-78 -3 -3 -97 -3 -98 -49 0 -49
0 -3 98 -3 97 -88 3 c-67 2 -89 0 -93 -11z"/>
<path d="M1794 3407 c-2 -7 -4 -52 -2 -98 l3 -84 93 -3 92 -3 0 -44 0 -44 -92
-3 -93 -3 -3 -92 -3 -93 96 0 95 0 0 95 0 95 50 0 50 0 0 -95 0 -96 93 3 92 3
3 78 c2 50 -1 84 -9 93 -8 10 -35 14 -95 14 l-84 0 0 45 0 45 83 0 c51 0 88 5
95 12 18 18 16 162 -2 177 -9 8 -43 11 -93 9 l-78 -3 -3 -97 -3 -98 -49 0 -49
0 -3 98 -3 97 -88 3 c-67 2 -89 0 -93 -11z"/>
<path d="M3714 3307 c-3 -8 -4 -49 -2 -93 l3 -79 93 -3 92 -3 0 -49 0 -49 -92
-3 -93 -3 0 -90 0 -90 93 -3 92 -3 0 96 0 95 50 0 50 0 0 -95 0 -96 93 3 92 3
0 90 0 90 -92 3 -93 3 0 49 0 49 93 3 92 3 0 90 0 90 -92 3 -93 3 0 -96 0 -95
-50 0 -50 0 0 95 0 95 -90 0 c-67 0 -92 -4 -96 -13z"/>
<path d="M5534 2827 c-3 -8 -4 -49 -2 -93 l3 -79 93 -3 92 -3 0 -49 0 -49 -92
-3 -93 -3 0 -90 0 -90 93 -3 92 -3 0 96 0 95 50 0 50 0 0 -95 0 -96 93 3 92 3
0 90 0 90 -92 3 -93 3 0 49 0 49 93 3 92 3 0 90 0 90 -92 3 -93 3 0 -96 0 -95
-50 0 -50 0 0 95 0 95 -90 0 c-67 0 -92 -4 -96 -13z"/>
<path d="M7457 2733 c-12 -12 -8 -158 5 -171 7 -7 44 -12 95 -12 l83 0 0 -45
0 -45 -83 0 c-51 0 -88 -5 -95 -12 -18 -18 -16 -162 2 -177 9 -8 43 -11 93 -9
l78 3 3 98 3 97 49 0 49 0 3 -97 3 -98 90 0 90 0 0 95 0 95 -92 3 -93 3 0 44
0 44 93 3 92 3 3 93 3 92 -96 0 -95 0 0 -95 0 -95 -50 0 -50 0 0 95 0 95 -88
0 c-49 0 -92 -3 -95 -7z"/>
<path d="M924 2347 c-3 -8 -4 -49 -2 -93 l3 -79 98 -3 97 -3 0 -49 0 -49 -97
-3 -98 -3 0 -90 0 -90 95 0 95 0 3 93 3 92 44 0 44 0 3 -92 3 -93 93 -3 92 -3
0 96 0 95 -95 0 -95 0 0 50 0 50 95 0 95 0 0 95 0 96 -92 -3 -93 -3 -3 -92 -3
-93 -44 0 -44 0 -3 93 -3 92 -93 3 c-71 2 -94 0 -98 -11z"/>
<path d="M7942 1488 c-16 -16 -16 -160 0 -176 7 -7 44 -12 95 -12 l83 0 0 -45
0 -45 -84 0 c-60 0 -87 -4 -95 -14 -8 -9 -11 -43 -9 -93 l3 -78 93 -3 92 -3 0
96 0 95 50 0 50 0 0 -95 0 -95 95 0 96 0 -3 93 -3 92 -92 3 -93 3 0 44 0 44
93 3 92 3 0 95 0 95 -90 0 -90 0 -3 -97 -3 -98 -49 0 -49 0 -3 98 -3 97 -80 3
c-54 2 -84 -1 -93 -10z"/>
<path d="M3902 1308 l3 -93 93 -3 92 -3 0 -49 0 -49 -92 -3 -93 -3 -3 -93 -3
-93 93 3 93 3 3 93 3 92 49 0 49 0 3 -92 3 -93 93 -3 93 -3 -3 93 -3 93 -92 3
-93 3 0 49 0 49 93 3 92 3 3 93 3 93 -93 -3 -93 -3 -3 -92 -3 -93 -49 0 -49 0
-3 93 -3 92 -93 3 -93 3 3 -93z"/>
<path d="M6117 1204 c-4 -4 -7 -47 -7 -96 l0 -88 95 0 95 0 0 -50 0 -49 -92
-3 -93 -3 0 -90 0 -90 90 0 90 0 3 93 3 92 49 0 50 0 0 -95 0 -96 93 3 92 3 0
90 0 90 -92 3 -93 3 0 49 0 49 93 3 92 3 3 78 c4 105 0 109 -102 105 l-81 -3
-3 -92 -3 -93 -49 0 -49 0 -3 93 -3 92 -85 3 c-47 1 -89 0 -93 -4z"/>
<path d="M1694 1097 c-3 -8 -4 -49 -2 -93 l3 -79 93 -3 92 -3 0 -49 0 -49 -92
-3 -93 -3 -3 -81 c-4 -102 0 -106 105 -102 l78 3 3 93 3 92 49 0 49 0 3 -92 3
-93 90 0 90 0 3 93 3 92 -96 0 -95 0 0 50 0 49 93 3 92 3 0 90 0 90 -90 0 -90
0 -3 -92 -3 -93 -49 0 -50 0 0 95 0 95 -90 0 c-67 0 -92 -4 -96 -13z"/>
</g>
</svg>
