<svg width="360" height="380" viewBox="0 0 563 593" fill="none" xmlns="http://www.w3.org/2000/svg">
<path d="M35.6541 6.07111V11.399H29.2544H22.8546V17.6148V23.8306H17.3692H11.8837V29.1585V34.4864H6.39825H0.912781V296.44V558.394H6.39825H11.8837V563.721V569.049H17.3692H22.8546V574.377V579.705H29.2544H35.6541V585.921V592.137H281.586H527.517V585.921V579.705H533.003H538.488V574.377V569.049H543.974H549.459V563.721V558.394H555.859H562.259V296.44V34.4864H555.859H549.459V29.1585V23.8306H543.974H538.488V17.6148V11.399H533.003H527.517V6.07111V0.743225H281.586H35.6541V6.07111ZM538.488 296.44V569.049H280.672H22.8546V296.44V23.8306H280.672H538.488V296.44Z" fill="#DBDBDB"/>
</svg>
