<svg viewBox="0 0 200.000000 250.000000">
    <g transform="translate(0.000000,250.000000) scale(0.100000,-0.100000)"
    fill="#FE5D02" stroke="none">
        <path d="M865 2388 c-3 -7 -6 -150 -7 -318 l-3 -305 -155 -5 -155 -5 -5 -155
        -5 -155 -155 -5 -155 -5 0 -155 0 -155 155 -5 155 -5 5 -155 5 -155 155 -5
        155 -5 5 -315 5 -315 155 0 155 0 5 315 5 315 155 5 155 5 5 155 5 155 155 5
        155 5 0 155 0 155 -155 5 -155 5 -5 155 -5 155 -155 5 -155 5 -5 315 -5 315
        -153 3 c-116 2 -154 0 -157 -10z"/>
    </g>
</svg>
