<svg width="80" height="170" viewBox="0 0 139 227" fill="none" xmlns="http://www.w3.org/2000/svg">
<path d="M38.8741 133.444V134.887H37.4056H35.9371V136.331V137.774H34.4685H33V143.549V149.323H34.4685H35.9371V150.767V152.211H37.4056H38.8741V153.654V155.098H44.7483H50.6224V153.654V152.211H52.0909H53.5594V150.767V149.323H55.028H56.4965V143.549V137.774H55.028H53.5594V136.331V134.887H52.0909H50.6224V133.444V132H44.7483H38.8741V133.444ZM44.7483 139.218V140.662H43.2797H41.8112V142.105V143.549H40.3427H38.8741V140.662V137.774H41.8112H44.7483V139.218Z" fill="black"/>
<path d="M87.8741 133.444V134.887H86.4056H84.9371V136.331V137.774H83.4685H82V143.549V149.323H83.4685H84.9371V150.767V152.211H86.4056H87.8741V153.654V155.098H93.7483H99.6224V153.654V152.211H101.091H102.559V150.767V149.323H104.028H105.497V143.549V137.774H104.028H102.559V136.331V134.887H101.091H99.6224V133.444V132H93.7483H87.8741V133.444ZM93.7483 139.218V140.662H92.2797H90.8112V142.105V143.549H89.3427H87.8741V140.662V137.774H90.8112H93.7483V139.218Z" fill="black"/>
<path d="M87.8741 179.444V180.887H86.4056H84.9371V182.331V183.774H83.4685H82V189.549V195.323H83.4685H84.9371V196.767V198.211H86.4056H87.8741V199.654V201.098H93.7483H99.6224V199.654V198.211H101.091H102.559V196.767V195.323H104.028H105.497V189.549V183.774H104.028H102.559V182.331V180.887H101.091H99.6224V179.444V178H93.7483H87.8741V179.444ZM93.7483 185.218V186.662H92.2797H90.8112V188.105V189.549H89.3427H87.8741V186.662V183.774H90.8112H93.7483V185.218Z" fill="black"/>
<path d="M38.8741 179.444V180.887H37.4056H35.9371V182.331V183.774H34.4685H33V189.549V195.323H34.4685H35.9371V196.767V198.211H37.4056H38.8741V199.654V201.098H44.7483H50.6224V199.654V198.211H52.0909H53.5594V196.767V195.323H55.028H56.4965V189.549V183.774H55.028H53.5594V182.331V180.887H52.0909H50.6224V179.444V178H44.7483H38.8741V179.444ZM44.7483 185.218V186.662H43.2797H41.8112V188.105V189.549H40.3427H38.8741V186.662V183.774H41.8112H44.7483V185.218Z" fill="black"/>
<path d="M63.8741 156.444V157.887H62.4056H60.9371V159.331V160.774H59.4685H58V166.549V172.323H59.4685H60.9371V173.767V175.21H62.4056H63.8741V176.654V178.098H69.7483H75.6224V176.654V175.21H77.0909H78.5594V173.767V172.323H80.028H81.4965V166.549V160.774H80.028H78.5594V159.331V157.887H77.0909H75.6224V156.444V155H69.7483H63.8741V156.444ZM69.7483 162.218V163.662H68.2797H66.8112V165.105V166.549H65.3427H63.8741V163.662V160.774H66.8112H69.7483V162.218Z" fill="black"/>
<path d="M38.8741 27.4436V28.8872H37.4056H35.9371V30.3308V31.7744H34.4685H33V37.5489V43.3233H34.4685H35.9371V44.7669V46.2105H37.4056H38.8741V47.6541V49.0977H44.7483H50.6224V47.6541V46.2105H52.0909H53.5594V44.7669V43.3233H55.028H56.4965V37.5489V31.7744H55.028H53.5594V30.3308V28.8872H52.0909H50.6224V27.4436V26H44.7483H38.8741V27.4436ZM44.7483 33.218V34.6617H43.2797H41.8112V36.1053V37.5489H40.3427H38.8741V34.6617V31.7744H41.8112H44.7483V33.218Z" fill="black"/>
<path d="M87.8741 27.4436V28.8873H86.4056H84.9371V30.3309V31.7745H83.4685H82V37.5489V43.3233H83.4685H84.9371V44.767V46.2106H86.4056H87.8741V47.6542V49.0978H93.7483H99.6224V47.6542V46.2106H101.091H102.559V44.767V43.3233H104.028H105.497V37.5489V31.7745H104.028H102.559V30.3309V28.8873H101.091H99.6224V27.4436V26H93.7483H87.8741V27.4436ZM93.7483 33.2181V34.6617H92.2797H90.8112V36.1053V37.5489H89.3427H87.8741V34.6617V31.7745H90.8112H93.7483V33.2181Z" fill="black"/>
<path d="M87.8741 73.4436V74.8873H86.4056H84.9371V76.3309V77.7745H83.4685H82V83.5489V89.3233H83.4685H84.9371V90.767V92.2106H86.4056H87.8741V93.6542V95.0978H93.7483H99.6224V93.6542V92.2106H101.091H102.559V90.767V89.3233H104.028H105.497V83.5489V77.7745H104.028H102.559V76.3309V74.8873H101.091H99.6224V73.4436V72H93.7483H87.8741V73.4436ZM93.7483 79.2181V80.6617H92.2797H90.8112V82.1053V83.5489H89.3427H87.8741V80.6617V77.7745H90.8112H93.7483V79.2181Z" fill="black"/>
<path d="M38.8741 73.4436V74.8872H37.4056H35.9371V76.3308V77.7744H34.4685H33V83.5489V89.3233H34.4685H35.9371V90.7669V92.2105H37.4056H38.8741V93.6541V95.0977H44.7483H50.6224V93.6541V92.2105H52.0909H53.5594V90.7669V89.3233H55.028H56.4965V83.5489V77.7744H55.028H53.5594V76.3308V74.8872H52.0909H50.6224V73.4436V72H44.7483H38.8741V73.4436ZM44.7483 79.218V80.6617H43.2797H41.8112V82.1053V83.5489H40.3427H38.8741V80.6617V77.7744H41.8112H44.7483V79.218Z" fill="black"/>
<path d="M63.8741 50.4436V51.8872H62.4056H60.9371V53.3308V54.7744H59.4685H58V60.5488V66.3233H59.4685H60.9371V67.7669V69.2105H62.4056H63.8741V70.6541V72.0977H69.7483H75.6224V70.6541V69.2105H77.0909H78.5594V67.7669V66.3233H80.028H81.4965V60.5488V54.7744H80.028H78.5594V53.3308V51.8872H77.0909H75.6224V50.4436V49H69.7483H63.8741V50.4436ZM69.7483 56.218V57.6616H68.2797H66.8112V59.1052V60.5488H65.3427H63.8741V57.6616V54.7744H66.8112H69.7483V56.218Z" fill="black"/>
<path d="M13.5268 2.0471V4.0942H11.1946H8.86242V6.36875V8.6433H6.76342H4.66443V10.9178V13.1924H2.33221H0V113.5V213.808H2.33221H4.66443V216.082V218.357H6.76342H8.86242V220.404V222.451H11.1946H13.5268V224.725V227H69.5H125.473V224.725V222.451H127.572H129.671V220.404V218.357H132.003H134.336V216.082V213.808H136.668H139V113.5V13.1924H136.668H134.336V10.9178V8.6433H132.003H129.671V6.36875V4.0942H127.572H125.473V2.0471V9.05991e-06H69.5H13.5268V2.0471ZM129.671 113.5V218.357H69.2668H8.86242V113.5V8.6433H69.2668H129.671V113.5Z" fill="black"/>
<path d="M17.7249 115.547V117.822H69.2668H120.809V115.547V113.273H69.2668H17.7249V115.547Z" fill="black"/>
</svg>
