<svg width="80" height="170" viewBox="0 0 139 227" fill="none" xmlns="http://www.w3.org/2000/svg">
<path d="M40.8741 26.4436V27.8872H39.4056H37.9371V29.3308V30.7744H36.4685H35V36.5489V42.3233H36.4685H37.9371V43.7669V45.2105H39.4056H40.8741V46.6541V48.0977H46.7483H52.6224V46.6541V45.2105H54.0909H55.5594V43.7669V42.3233H57.028H58.4965V36.5489V30.7744H57.028H55.5594V29.3308V27.8872H54.0909H52.6224V26.4436V25H46.7483H40.8741V26.4436ZM46.7483 32.218V33.6617H45.2797H43.8112V35.1053V36.5489H42.3427H40.8741V33.6617V30.7744H43.8112H46.7483V32.218Z" fill="black"/>
<path d="M89.8741 26.4436V27.8873H88.4056H86.9371V29.3309V30.7745H85.4685H84V36.5489V42.3233H85.4685H86.9371V43.767V45.2106H88.4056H89.8741V46.6542V48.0978H95.7483H101.622V46.6542V45.2106H103.091H104.559V43.767V42.3233H106.028H107.497V36.5489V30.7745H106.028H104.559V29.3309V27.8873H103.091H101.622V26.4436V25H95.7483H89.8741V26.4436ZM95.7483 32.2181V33.6617H94.2797H92.8112V35.1053V36.5489H91.3427H89.8741V33.6617V30.7745H92.8112H95.7483V32.2181Z" fill="black"/>
<path d="M89.8741 72.4436V73.8873H88.4056H86.9371V75.3309V76.7745H85.4685H84V82.5489V88.3233H85.4685H86.9371V89.767V91.2106H88.4056H89.8741V92.6542V94.0978H95.7483H101.622V92.6542V91.2106H103.091H104.559V89.767V88.3233H106.028H107.497V82.5489V76.7745H106.028H104.559V75.3309V73.8873H103.091H101.622V72.4436V71H95.7483H89.8741V72.4436ZM95.7483 78.2181V79.6617H94.2797H92.8112V81.1053V82.5489H91.3427H89.8741V79.6617V76.7745H92.8112H95.7483V78.2181Z" fill="black"/>
<path d="M40.8741 72.4436V73.8872H39.4056H37.9371V75.3308V76.7744H36.4685H35V82.5489V88.3233H36.4685H37.9371V89.7669V91.2105H39.4056H40.8741V92.6541V94.0977H46.7483H52.6224V92.6541V91.2105H54.0909H55.5594V89.7669V88.3233H57.028H58.4965V82.5489V76.7744H57.028H55.5594V75.3308V73.8872H54.0909H52.6224V72.4436V71H46.7483H40.8741V72.4436ZM46.7483 78.218V79.6617H45.2797H43.8112V81.1053V82.5489H42.3427H40.8741V79.6617V76.7744H43.8112H46.7483V78.218Z" fill="black"/>
<path d="M89.8741 132.444V133.887H88.4056H86.9371V135.331V136.774H85.4685H84V142.549V148.323H85.4685H86.9371V149.767V151.211H88.4056H89.8741V152.654V154.098H95.7483H101.622V152.654V151.211H103.091H104.559V149.767V148.323H106.028H107.497V142.549V136.774H106.028H104.559V135.331V133.887H103.091H101.622V132.444V131H95.7483H89.8741V132.444ZM95.7483 138.218V139.662H94.2797H92.8112V141.105V142.549H91.3427H89.8741V139.662V136.774H92.8112H95.7483V138.218Z" fill="black"/>
<path d="M40.8741 178.444V179.887H39.4056H37.9371V181.331V182.774H36.4685H35V188.549V194.323H36.4685H37.9371V195.767V197.211H39.4056H40.8741V198.654V200.098H46.7483H52.6224V198.654V197.211H54.0909H55.5594V195.767V194.323H57.028H58.4965V188.549V182.774H57.028H55.5594V181.331V179.887H54.0909H52.6224V178.444V177H46.7483H40.8741V178.444ZM46.7483 184.218V185.662H45.2797H43.8112V187.105V188.549H42.3427H40.8741V185.662V182.774H43.8112H46.7483V184.218Z" fill="black"/>
<path d="M13.5268 2.0471V4.0942H11.1946H8.86242V6.36875V8.6433H6.76342H4.66443V10.9178V13.1924H2.33221H0V113.5V213.808H2.33221H4.66443V216.082V218.357H6.76342H8.86242V220.404V222.451H11.1946H13.5268V224.725V227H69.5H125.473V224.725V222.451H127.572H129.671V220.404V218.357H132.003H134.336V216.082V213.808H136.668H139V113.5V13.1924H136.668H134.336V10.9178V8.6433H132.003H129.671V6.36875V4.0942H127.572H125.473V2.0471V9.05991e-06H69.5H13.5268V2.0471ZM129.671 113.5V218.357H69.2668H8.86242V113.5V8.6433H69.2668H129.671V113.5Z" fill="black"/>
<path d="M17.7249 115.547V117.822H69.2668H120.809V115.547V113.273H69.2668H17.7249V115.547Z" fill="black"/>
</svg>
